# xmcd
#
# Track frame offsets:
#	150
#	15439
#	40356
#	65574
#	97246
#	127172
#	153029
#	165656
#	220219
#	252301
#
# Disc length: 4181 seconds
# Revision: 0
# Processed by: cddbd v1.5.2PL0 Copyright (c) Steve Scherf et al.
# Submitted via: dBpowerAMP V12.0
#
DISCID=8910530a
DTITLE=Iron Thrones - Visions of Light
DYEAR=2008
DGENRE=Metal
TTITLE0=Swell to the Surface
TTITLE1=The Dark Design
TTITLE2=Heart of the Light
TTITLE3=Still Waters
TTITLE4=The Final Farewell
TTITLE5=Illumination
TTITLE6=Wading...
TTITLE7=Cover of Smoke
TTITLE8=Shadows Revealed
TTITLE9=DATA
EXTD=
EXTT0=
EXTT1=
EXTT2=
EXTT3=
EXTT4=
EXTT5=
EXTT6=
EXTT7=
EXTT8=
EXTT9=
PLAYORDER=
